<?xml version="1.0" encoding="UTF-8" standalone="no"?>
<!-- Created with Inkscape (http://www.inkscape.org/) -->

<svg
   xmlns:dc="http://purl.org/dc/elements/1.1/"
   xmlns:cc="http://creativecommons.org/ns#"
   xmlns:rdf="http://www.w3.org/1999/02/22-rdf-syntax-ns#"
   xmlns:svg="http://www.w3.org/2000/svg"
   xmlns="http://www.w3.org/2000/svg"
   xmlns:sodipodi="http://sodipodi.sourceforge.net/DTD/sodipodi-0.dtd"
   xmlns:inkscape="http://www.inkscape.org/namespaces/inkscape"
   width="150"
   height="150"
   viewBox="0 0 140.62499 140.625"
   id="svg2"
   version="1.1"
   inkscape:version="0.92.1 r15371"
   sodipodi:docname="pidgey.svg">
  <defs
     id="defs4" />
  <sodipodi:namedview
     id="base"
     pagecolor="#ffffff"
     bordercolor="#666666"
     borderopacity="1.0"
     inkscape:pageopacity="0.0"
     inkscape:pageshadow="2"
     inkscape:zoom="3.5816989"
     inkscape:cx="75"
     inkscape:cy="126.89509"
     inkscape:document-units="px"
     inkscape:current-layer="layer1"
     showgrid="true"
     fit-margin-top="0"
     fit-margin-left="0"
     fit-margin-right="0"
     fit-margin-bottom="0"
     inkscape:window-width="1658"
     inkscape:window-height="1078"
     inkscape:window-x="3050"
     inkscape:window-y="79"
     inkscape:window-maximized="0"
     units="px">
    <inkscape:grid
       type="xygrid"
       id="grid3765" />
  </sodipodi:namedview>
  <metadata
     id="metadata7">
    <rdf:RDF>
      <cc:Work
         rdf:about="">
        <dc:format>image/svg+xml</dc:format>
        <dc:type
           rdf:resource="http://purl.org/dc/dcmitype/StillImage" />
        <dc:title></dc:title>
      </cc:Work>
    </rdf:RDF>
  </metadata>
  <g
     inkscape:label="Layer 1"
     inkscape:groupmode="layer"
     id="layer1"
     transform="translate(250.84598,-567.7013)">
    <g
       id="g3801"
       transform="translate(1.5078001,2.1664805)">
      <g
         transform="matrix(7.007248,0,0,-7.007248,-165.33266,642.91013)"
         id="g3706">
        <path
           inkscape:connector-curvature="0"
           id="path3708"
           style="fill:#c08b98;fill-opacity:1;fill-rule:nonzero;stroke:none"
           d="m 0,0 c 0,0 -0.817,0.265 -1.051,0.162 -0.235,-0.101 -1.023,-1.494 -1.037,-1.71 -0.016,-0.215 0.551,-0.573 0.633,-0.64 0.081,-0.067 0.72,-0.017 0.777,0.116 0.059,0.132 -0.42,0.584 -0.42,0.584 l 0.566,0.426 0.208,0.013 c 0,0 0.017,-0.254 0.135,-0.275 0.116,-0.02 0.42,0.668 0.434,0.805 C 0.257,-0.382 0,0 0,0" />
      </g>
      <g
         transform="matrix(7.007248,0,0,-7.007248,-183.18714,624.72564)"
         id="g3710">
        <path
           inkscape:connector-curvature="0"
           id="path3712"
           style="fill:#dd9e69;fill-opacity:1;fill-rule:nonzero;stroke:none"
           d="M 0,0 C 0,0 2.149,2.391 2.301,2.588 2.453,2.784 1.412,3.539 1.312,3.444 1.211,3.351 -0.432,0.446 -0.432,0.446 Z" />
      </g>
      <g
         transform="matrix(7.007248,0,0,-7.007248,-179.67297,619.47232)"
         id="g3714">
        <path
           inkscape:connector-curvature="0"
           id="path3716"
           style="fill:#dd9e69;fill-opacity:1;fill-rule:nonzero;stroke:none"
           d="m 0,0 1.387,2.959 c 0,0 -1.03,0.711 -1.129,0.504 C 0.16,3.254 -0.849,-0.013 -0.849,-0.013 Z" />
      </g>
      <g
         transform="matrix(7.007248,0,0,-7.007248,-171.82485,624.48246)"
         id="g3718">
        <path
           inkscape:connector-curvature="0"
           id="path3720"
           style="fill:#dd9e69;fill-opacity:1;fill-rule:nonzero;stroke:none"
           d="m 0,0 c 0.975,-2.089 -0.397,-4.791 -2.618,-5.827 -1.867,-0.869 -3.881,-0.179 -4.543,0.283 -0.265,0.183 -0.81,0.538 -0.966,0.872 -0.974,2.089 -0.152,4.196 2.014,5.345 C -3.814,1.894 -0.973,2.089 0,0" />
      </g>
      <g
         transform="matrix(7.007248,0,0,-7.007248,-232.56087,658.30506)"
         id="g3722">
        <path
           inkscape:connector-curvature="0"
           id="path3724"
           style="fill:#ffe8af;fill-opacity:1;fill-rule:nonzero;stroke:none"
           d="m 0,0 1.973,2.389 1.854,0.277 c 0,0 0.267,-1.129 0.557,-1.944 L 6.716,1.589 6.788,0.686 5.88,0.465 6.707,0.502 6.622,-0.219 5.805,-0.398 6.421,-0.459 6.23,-0.878 4.894,-1.042 6.033,-1.081 5.675,-1.614 c 0,0 -0.966,-0.176 -1.695,-0.148 -0.6,0.024 -1.423,0.229 -1.727,0.317 -0.321,0.09 -1.391,0.804 -1.391,0.804 L 0.68,-0.16 0.281,-0.222 Z" />
      </g>
      <g
         transform="matrix(7.007248,0,0,-7.007248,-217.24302,617.44792)"
         id="g3726">
        <path
           inkscape:connector-curvature="0"
           id="path3728"
           style="fill:#dd9e69;fill-opacity:1;fill-rule:nonzero;stroke:none"
           d="m 0,0 -0.965,-0.393 c 0,0 0.001,1.175 -0.067,1.2 -0.066,0.025 -0.258,-0.304 -0.258,-0.304 0,0 -0.073,0.688 -0.14,0.724 -0.032,0.018 -0.772,-1.233 -0.772,-1.233 0,0 0.013,1.079 -0.075,1.112 -0.09,0.031 -0.967,-1.824 -0.797,-3.765 0.111,-1.266 0.611,-2.649 0.611,-2.649 z" />
      </g>
      <g
         transform="matrix(7.007248,0,0,-7.007248,-223.84598,637.24339)"
         id="g3730">
        <path
           inkscape:connector-curvature="0"
           id="path3732"
           style="fill:#7a7969;fill-opacity:1;fill-rule:nonzero;stroke:none"
           d="M 0,0 C 0,0 0.711,0.404 1.326,0.581 2.233,0.84 2.885,0.866 2.991,0.676 3.245,0.225 3.092,-1.866 2.987,-1.916 2.88,-1.964 2.345,-0.91 2.143,-0.893 2.05,-0.887 1.355,-1.127 0.884,-1.461 0.329,-1.857 -0.159,-2.298 -0.159,-2.298 l -0.8,0.993 z" />
      </g>
      <g
         transform="matrix(7.007248,0,0,-7.007248,-228.77208,657.21964)"
         id="g3734">
        <path
           inkscape:connector-curvature="0"
           id="path3736"
           style="fill:#fffefb;fill-opacity:1;fill-rule:nonzero;stroke:none"
           d="M 0,0 C 0,0 1.38,1.292 1.389,1.431 1.398,1.57 0.478,2.966 0.478,2.966 L -0.621,0.494 Z" />
      </g>
      <g
         transform="matrix(7.007248,0,0,-7.007248,-228.90796,646.33739)"
         id="g3738">
        <path
           inkscape:connector-curvature="0"
           id="path3740"
           style="fill:#7a7969;fill-opacity:1;fill-rule:nonzero;stroke:none"
           d="m 0,0 c 0,0 0.233,-0.174 0.398,-0.422 0.156,-0.234 0.139,-0.23 0.245,-0.473 l -0.451,-0.504 -0.682,0.547 0.099,0.179 c 0,0 0.035,-0.063 0.105,-0.129 0.101,-0.097 0.297,-0.182 0.332,-0.126 0.036,0.055 -0.024,0.244 -0.115,0.355 -0.07,0.088 -0.18,0.162 -0.18,0.162 z" />
      </g>
      <g
         transform="matrix(7.007248,0,0,-7.007248,-233.12499,653.76156)"
         id="g3742">
        <path
           inkscape:connector-curvature="0"
           id="path3744"
           style="fill:#ffe8af;fill-opacity:1;fill-rule:nonzero;stroke:none"
           d="M 0,0 C 0,0 -0.135,0.917 0.301,2.295 0.735,3.673 2.462,5.751 2.462,5.751 L 2.477,4.766 3.07,5.153 2.889,4.554 3.614,4.653 c 0,0 -1.055,-1.109 -1.71,-1.806 C 1.249,2.15 0,0 0,0" />
      </g>
      <g
         transform="matrix(7.007248,0,0,-7.007248,-234.39818,651.03784)"
         id="g3746">
        <path
           inkscape:connector-curvature="0"
           id="path3748"
           style="fill:#e8a8b6;fill-opacity:1;fill-rule:nonzero;stroke:none"
           d="m 0,0 c -0.145,-0.044 -1.109,-1.388 -1.213,-1.614 -0.103,-0.225 0.108,-1.153 0.239,-1.183 0.047,-0.012 0.4,0.667 0.503,0.752 0.155,0.125 1.424,0.729 1.424,0.729 0,0 -0.125,-0.532 -0.222,-0.783 -0.085,-0.218 -0.582,-0.602 -0.519,-0.679 0.062,-0.077 0.721,0.196 0.975,0.279 0.275,0.09 0.593,0.518 0.593,0.518 L 1.377,-1.099 C 1.377,-1.099 0.145,0.042 0,0" />
      </g>
      <g
         transform="matrix(7.007248,0,0,-7.007248,-205.13589,652.71745)"
         id="g3750">
        <path
           inkscape:connector-curvature="0"
           id="path3752"
           style="fill:#ffe8af;fill-opacity:1;fill-rule:nonzero;stroke:none"
           d="M 0,0 C 0,0 1.199,0.999 2.245,1.487 3.371,2.011 4.807,1.927 4.938,1.804 5.067,1.682 5.102,1.055 4.703,0.299 4.313,-0.434 3.972,-0.69 3.398,-1.116 2.47,-1.806 1.534,-2.004 1.001,-2.123 Z" />
      </g>
      <g
         transform="matrix(7.007248,0,0,-7.007248,-192.52145,670.05058)"
         id="g3754">
        <path
           inkscape:connector-curvature="0"
           id="path3756"
           style="fill:#ab9c78;fill-opacity:1;fill-rule:nonzero;stroke:none"
           d="m 0,0 -0.028,-0.004 c -0.01,-0.001 -1.728,-0.088 -1.728,-0.088 0,0 1.514,0.187 1.677,0.216 L 0.196,0.534 -0.873,0.627 0.471,0.86 0.608,1.161 -0.332,1.255 0.845,1.514 0.918,2.107 0.011,2.178 1.002,2.413 0.943,3.172 -1.308,2.335 1.061,3.358 1.145,2.311 0.846,2.237 1.07,2.248 0.967,1.403 0.514,1.303 0.806,1.275 0.561,0.738 0.032,0.672 0.441,0.658 Z" />
      </g>
      <g
         transform="matrix(7.007248,0,0,-7.007248,-159.56428,635.42008)"
         id="g3758">
        <path
           inkscape:connector-curvature="0"
           id="path3760"
           style="fill:#e8a8b6;fill-opacity:1;fill-rule:nonzero;stroke:none"
           d="m 0,0 c 0,0 -0.965,0.202 -1.221,0.055 -0.256,-0.145 -0.984,-1.836 -0.974,-2.085 0.008,-0.247 0.701,-0.587 0.803,-0.653 0.101,-0.067 0.826,0.068 0.874,0.227 0.053,0.16 -0.551,0.618 -0.551,0.618 l 0.593,0.557 0.237,0.042 c 0,0 0.051,-0.291 0.189,-0.299 0.136,-0.008 0.398,0.815 0.396,0.974 C 0.344,-0.406 0,0 0,0" />
      </g>
      <g
         transform="matrix(7.007248,0,0,-7.007248,-189.90848,642.7013)"
         id="g3762">
        <path
           inkscape:connector-curvature="0"
           id="path3764"
           style="fill:#ab7b51;fill-opacity:1;fill-rule:nonzero;stroke:none"
           d="M 0,0 1.052,2.133 C 1.117,2.264 1.188,2.413 1.244,2.541 1.098,2.501 0.949,2.447 0.901,2.412 0.836,2.315 0.435,1.71 0.435,1.71 L 0.363,1.603 -0.622,1.559 C -0.691,1.511 -1.406,1.137 -1.406,1.137 c 0,0 -0.001,0.235 0.086,0.397 0.212,0.397 0.466,0.483 0.48,0.491 L -0.783,2.062 0.083,2.1 C 0.205,2.282 0.446,2.644 0.514,2.738 0.682,2.961 1.442,3.146 1.64,3.101 L 1.771,3.073 C 1.784,3.092 1.794,3.106 1.8,3.116 1.96,3.387 2.72,3.498 2.925,3.437 2.964,3.425 2.998,3.409 3.026,3.389 3.089,3.471 3.138,3.532 3.161,3.558 3.32,3.729 4.459,4.01 4.729,3.846 L 3.434,2.455 C 3.682,2.76 3.953,3.103 4.141,3.354 3.884,3.308 3.582,3.231 3.504,3.186 3.469,3.141 2.989,2.499 2.668,2.065 l -0.43,0.27 C 2.341,2.528 2.451,2.748 2.531,2.92 2.406,2.895 2.275,2.858 2.218,2.827 2.086,2.628 1.585,1.994 1.48,1.862 Z" />
      </g>
      <g
         transform="matrix(7.007248,0,0,-7.007248,-200.44598,640.95511)"
         id="g3766">
        <path
           inkscape:connector-curvature="0"
           id="path3768"
           style="fill:#dd9e69;fill-opacity:1;fill-rule:nonzero;stroke:none"
           d="m 0,0 c 0,0 2.261,-1.866 3.167,-2.336 1.755,-0.906 6.773,-2.721 7.28,-2.776 0.507,-0.056 1.013,2.419 0.628,2.589 -0.386,0.171 -4.036,1.065 -4.036,1.065 0,0 3.751,-0.43 4.113,-0.429 0.5,0.001 -0.095,1.998 -0.692,2.053 C 9.862,0.22 6.818,0.101 6.818,0.101 c 0,0 3.329,0.597 3.717,0.573 C 10.92,0.649 9.79,1.737 9.282,1.76 8.777,1.783 6.761,1.472 6.761,1.472 c 0,0 2.136,0.603 2.425,0.718 C 9.473,2.306 8.4,2.873 8,2.783 7.599,2.693 5.888,1.823 5.888,1.823 c 0,0 1.656,1.059 1.847,1.213 C 7.927,3.189 6.753,3.374 6.524,3.196 6.295,3.018 5.132,2.049 5.132,2.049 c 0,0 0.921,1.133 0.98,1.299 C 6.169,3.512 4.955,3.254 4.849,3.139 4.743,3.024 3.964,1.97 3.964,1.97 c 0,0 0.428,0.813 0.431,0.94 C 4.398,3.036 3.602,2.881 3.519,2.741 3.437,2.601 2.78,1.774 2.78,1.774 c 0,0 0.358,0.724 0.336,0.813 C 3.095,2.676 2.316,2.47 2.221,2.341 2.129,2.216 1.723,1.605 1.723,1.605 L 0.795,1.564 c 0,0 -0.308,-0.193 -0.535,-0.472 C -0.161,0.579 0,0 0,0" />
      </g>
      <g
         transform="matrix(7.007248,0,0,-7.007248,-237.1324,605.04856)"
         id="g3770">
        <path
           inkscape:connector-curvature="0"
           id="path3772"
           style="fill:#376496;fill-opacity:1;fill-rule:nonzero;stroke:none"
           d="m 0,0 c -0.476,-0.388 -1.267,-2.554 -1.096,-4.504 0.061,-0.702 0.226,-1.421 0.386,-1.998 -0.353,-0.457 -0.794,-1.085 -0.899,-1.316 -0.284,-0.624 0.094,-1.666 0.174,-1.831 0.183,-0.373 0.456,-0.506 0.654,-0.554 0.261,-0.061 0.545,0.006 0.754,0.175 0.017,0.015 0.033,0.029 0.048,0.044 0.429,-0.408 1.001,-0.198 1.607,0.023 0.084,0.031 0.161,0.059 0.215,0.077 0.132,0.042 0.259,0.106 0.387,0.195 0.218,-0.116 0.343,-0.161 0.44,-0.189 0.105,-0.03 1.011,-0.282 1.78,-0.339 0.065,-0.013 0.132,-0.018 0.201,-0.014 l 0.067,0.004 c 0.263,-0.005 0.567,0.012 0.901,0.044 0.784,0.04 0.784,0.04 0.822,0.045 0.016,10e-4 0.03,0.003 0.047,0.006 l 0.027,0.005 c 0.147,0.026 0.284,0.089 0.396,0.182 0.068,0.054 0.125,0.117 0.174,0.19 l 0.341,0.509 c 0.01,0.008 0.021,0.016 0.03,0.023 0.364,0.171 0.708,0.375 1.023,0.61 0.044,0.034 0.088,0.065 0.129,0.096 2.054,-0.938 6.337,-2.509 6.98,-2.578 0.28,-0.031 0.561,0.055 0.792,0.244 0.7,0.569 1.009,2.326 0.909,3.06 -0.017,0.126 -0.046,0.236 -0.08,0.331 0.273,0.374 0.302,0.945 0.082,1.67 -0.087,0.283 -0.274,0.788 -0.604,1.175 0.04,0.167 0.033,0.347 -0.025,0.523 -0.129,0.392 -0.719,1.003 -1.338,1.343 -0.013,0.097 -0.042,0.193 -0.087,0.286 -0.213,0.435 -0.928,0.84 -1.569,0.958 -0.004,0.005 -0.007,0.01 -0.012,0.015 -0.313,0.393 -1.186,0.573 -1.845,0.467 -0.313,0.203 -0.828,0.179 -1.292,0.08 0.122,0.14 0.146,0.17 0.163,0.192 0.161,0.208 0.226,0.469 0.184,0.734 C 10.826,0.23 10.681,0.481 10.434,0.731 10.5,1.064 10.367,1.412 10.077,1.611 9.162,2.244 8.484,2.546 7.93,2.095 7.822,2.007 7.736,1.896 7.677,1.771 7.642,1.698 7.586,1.58 6.983,-0.348 6.021,-0.265 4.925,-0.445 3.829,-0.867 3.737,-0.646 3.554,-0.47 3.318,-0.386 3.054,-0.293 2.766,-0.336 2.541,-0.49 2.465,-0.362 2.357,-0.265 2.206,-0.194 2.124,-0.019 2.005,0.116 1.821,0.216 1.521,0.379 1.148,0.348 0.877,0.14 0.871,0.143 0.866,0.144 0.859,0.146 0.574,0.252 0.237,0.194 0.003,0.001 0.001,0.001 0.001,0.001 0,0 m 0.546,-0.669 c 0.007,0.005 0.01,0.007 0.015,0.006 0.088,-0.034 0.076,-1.112 0.076,-1.112 0,0 0.689,1.168 0.767,1.23 0.002,0.002 0.003,0.004 0.005,0.003 0.066,-0.037 0.14,-0.724 0.14,-0.724 0,0 0.127,0.217 0.211,0.285 0.017,0.015 0.034,0.023 0.047,0.019 0.067,-0.025 0.066,-1.201 0.066,-1.201 l 0.601,0.245 c 0.321,0.43 0.56,0.717 0.56,0.717 l 0.015,-0.985 0.593,0.387 -0.03,-0.1 c 1.342,0.626 2.814,0.894 3.97,0.574 0.305,0.977 0.81,2.585 0.876,2.729 0.005,0.009 0.01,0.015 0.017,0.021 C 8.637,1.556 9.587,0.9 9.587,0.9 L 9.386,0.473 C 9.706,0.258 10.096,-0.096 10,-0.221 9.915,-0.33 9.193,-1.138 8.581,-1.823 8.737,-1.946 8.878,-2.09 9.004,-2.253 9.267,-2.173 9.633,-2.129 9.63,-2.215 9.628,-2.29 9.475,-2.611 9.352,-2.857 c 0.008,-0.019 0.015,-0.04 0.024,-0.059 0.236,0.318 0.634,0.851 0.708,0.931 0.002,0.002 0.005,0.004 0.007,0.006 0.146,0.119 1.312,0.364 1.257,0.203 -0.06,-0.166 -0.981,-1.299 -0.981,-1.299 0,0 0.838,0.696 1.232,1.016 0.069,0.058 0.126,0.104 0.161,0.131 0.228,0.178 1.399,-0.007 1.211,-0.16 H 12.97 c -0.191,-0.154 -1.846,-1.214 -1.846,-1.214 0,0 1.711,0.87 2.112,0.961 0.384,0.087 1.391,-0.433 1.213,-0.577 -0.007,-0.006 -0.016,-0.011 -0.027,-0.016 -0.289,-0.115 -2.425,-0.719 -2.425,-0.719 0,0 2.015,0.312 2.521,0.289 0.469,-0.022 1.467,-0.949 1.315,-1.073 C 15.82,-4.448 15.8,-4.453 15.77,-4.45 c -0.387,0.023 -3.716,-0.573 -3.716,-0.573 0,0 3.044,0.119 3.641,0.065 0.553,-0.051 1.104,-1.764 0.786,-2.021 -0.025,-0.021 -0.055,-0.032 -0.094,-0.032 -0.362,-10e-4 -4.113,0.429 -4.113,0.429 0,0 3.651,-0.895 4.037,-1.065 0.345,-0.152 -0.03,-2.171 -0.476,-2.534 -0.051,-0.041 -0.102,-0.061 -0.152,-0.056 -0.499,0.055 -5.364,1.812 -7.189,2.732 C 8.456,-7.538 8.418,-7.57 8.378,-7.602 8.253,-7.703 8.117,-7.805 7.964,-7.919 7.617,-8.176 7.269,-8.365 6.943,-8.506 L 6.928,-8.539 6.832,-8.551 C 6.78,-8.573 6.726,-8.594 6.674,-8.615 L 6.807,-8.618 6.366,-9.276 6.338,-9.28 C 6.334,-9.281 5.955,-9.301 5.554,-9.321 5.284,-9.348 4.981,-9.371 4.704,-9.364 4.647,-9.366 4.61,-9.368 4.61,-9.368 c 0,0 0.019,0.003 0.047,0.006 -0.008,0 -0.016,0 -0.025,0 C 4.033,-9.338 3.21,-9.133 2.905,-9.045 2.749,-9.001 2.412,-8.807 2.109,-8.62 2.045,-8.699 1.936,-8.823 1.813,-8.922 1.737,-8.984 1.654,-9.037 1.577,-9.062 1.324,-9.145 0.664,-9.418 0.602,-9.341 0.54,-9.264 1.037,-8.88 1.12,-8.662 c 0.098,0.251 0.223,0.783 0.223,0.783 0,0 -1.269,-0.605 -1.423,-0.73 -0.097,-0.079 -0.418,-0.687 -0.491,-0.747 -0.006,-0.004 -0.01,-0.006 -0.012,-0.004 -0.131,0.03 -0.342,0.958 -0.24,1.183 0.085,0.187 0.758,1.135 1.073,1.484 -0.156,0.498 -0.411,1.408 -0.486,2.264 -0.162,1.859 0.636,3.641 0.782,3.76" />
      </g>
    </g>
  </g>
</svg>
